<svg width="65" height="65" viewBox="0 0 65 65" fill="none" xmlns="http://www.w3.org/2000/svg">
<g id="Frame">
<path id="Vector" d="M60.968 64.999H4.02188L13.584 43.0016H51.4059L60.968 64.999Z" fill="#86A7AC"/>
<path id="Vector_2" d="M56.8587 25.1489C56.8587 39.0376 51.3632 50.2968 44.5798 50.2968H20.412C13.6337 50.2968 8.13312 39.0335 8.13312 25.1489C8.13312 11.2592 13.6287 0 20.412 0H44.5809C51.3591 0 56.8587 11.2633 56.8587 25.1489Z" fill="#D1D2D3"/>
<path id="Vector_3" d="M9.55093 13.4641C8.6521 16.9569 8.14023 20.929 8.14023 25.1489C8.14023 39.0376 13.6368 50.2968 20.4191 50.2968H44.588C47.6958 50.2968 50.5294 47.908 52.6916 44.0019C44.3259 41.1013 19.306 42.8035 9.55499 13.4621" fill="#BCBDBF"/>
<path id="Vector_4" d="M57.3219 26.1513C57.3219 40.5509 52.0823 45.303 45.0531 45.303H37.9234C47.8481 31.6032 57.3219 23.9139 57.3219 26.1513ZM7.68524 26.1513C7.68524 40.5509 12.9259 45.303 19.954 45.303H27.0837C17.1559 31.6032 7.68524 23.9139 7.68524 26.1513Z" fill="#F0F1F2"/>
<path id="Vector_5" d="M13.6754 10.9383C14.427 10.0201 28.8631 9.10202 29.3658 10.9383C29.8675 12.7745 31.4529 23.2903 29.3658 23.79C27.2777 24.2917 14.6778 21.2855 13.6754 18.9505C12.675 16.6126 12.9259 11.8554 13.6754 10.9383ZM51.3094 10.9383C50.5578 10.0201 36.1217 9.10202 35.62 10.9383C35.1183 12.7745 33.5319 23.2903 35.62 23.79C37.7081 24.2917 50.308 21.2855 51.3094 18.9505C52.3108 16.6126 52.0609 11.8554 51.3094 10.9383Z" fill="#66B1DE"/>
<path id="Vector_6" d="M55.7456 64.999H9.25641L17.0635 47.0438H47.9375L55.7456 64.999Z" fill="#63797B"/>
<path id="Vector_7" d="M11.2023 51.3398H52.8308V56.0229H11.2023V51.3398ZM60.968 64.999H4.02188L5.87438 60.7395H59.1134L60.968 64.999Z" fill="#86A7AC"/>
<path id="Vector_8" d="M56.4484 29.0479C56.4484 42.9365 51.3937 47.5221 44.6154 47.5221H37.7406C47.3139 34.3088 56.4484 26.8968 56.4484 29.0479ZM8.58203 29.0479C8.58203 42.9365 13.6378 47.5221 20.4161 47.5221H27.2909C17.7166 34.3088 8.58203 26.8968 8.58203 29.0479Z" fill="#1181A8"/>
<path id="Vector_9" d="M8.58203 31.8815C8.58203 45.7712 13.6378 50.3557 20.4161 50.3557H27.2909C17.7166 37.1424 8.58203 29.7284 8.58203 31.8815ZM56.4484 31.8815C56.4484 45.7712 51.3937 50.3557 44.6154 50.3557H37.7406C47.3139 37.1424 56.4484 29.7284 56.4484 31.8815Z" fill="#29ABE2"/>
<path id="Vector_10" d="M51.0859 49.7859C51.0859 53.4483 39.8023 60.4388 32.4969 60.4388C25.1895 60.4388 13.912 53.4483 13.912 49.7859C13.912 46.1236 25.1855 44.8012 32.4969 44.8012C39.8044 44.8012 51.0859 46.1236 51.0859 49.7859Z" fill="#1181A8"/>
<path id="Vector_11" d="M50.4959 49.0344C50.4959 52.5809 39.5738 59.3521 32.5 59.3521C25.4242 59.3521 14.5072 52.5809 14.5072 49.0344C14.5072 45.4899 25.4252 44.2112 32.5 44.2112C39.5738 44.2112 50.4959 45.4899 50.4959 49.0344Z" fill="#29ABE2"/>
<path id="Vector_12" d="M53.7215 42.1809C53.7215 43.8141 52.7516 45.303 51.5521 45.303H47.2164C46.017 45.303 45.047 43.8141 45.047 42.1809C45.047 40.5427 46.017 39.0589 47.2164 39.0589H51.5521C52.7505 39.0589 53.7215 40.5427 53.7215 42.1809ZM19.8748 42.1809C19.8748 43.8141 18.9048 45.303 17.7064 45.303H13.3707C12.1712 45.303 11.2013 43.8141 11.2013 42.1809C11.2013 40.5427 12.1712 39.0589 13.3707 39.0589H17.7064C18.9059 39.0589 19.8748 40.5427 19.8748 42.1809Z" fill="#FBED21"/>
</g>
</svg>
