<svg width="41" height="41" viewBox="0 0 41 41" fill="none" xmlns="http://www.w3.org/2000/svg">
<g id="Frame">
<path id="Vector" d="M16.1216 40.0997C16.0805 40.0298 16.0305 39.9655 15.973 39.9084L15.9354 39.8725L15.9371 39.8742C15.6825 39.6239 15.3453 39.4749 14.9888 39.4551C14.6323 39.4353 14.2807 39.546 13.9999 39.7666L13.9948 39.7717L12.3172 38.0941C12.5398 37.8135 12.6523 37.4612 12.6334 37.1035C12.6145 36.7458 12.4656 36.4074 12.2147 36.1517C11.96 35.9014 11.6229 35.7525 11.2664 35.7326C10.9098 35.7128 10.5583 35.8236 10.2774 36.0441L10.2723 36.0492L8.59473 34.3717C8.81736 34.0911 8.92982 33.7388 8.91094 33.3811C8.89206 33.0234 8.74316 32.6849 8.49223 32.4293C8.23755 32.179 7.90043 32.03 7.54389 32.0102C7.18736 31.9904 6.83581 32.1011 6.55497 32.3217L6.54985 32.3268L4.87227 30.6492C5.0949 30.3686 5.20736 30.0163 5.18848 29.6586C5.16961 29.3009 5.0207 28.9624 4.76977 28.7068C4.51509 28.4565 4.17797 28.3075 3.82143 28.2877C3.4649 28.2679 3.11335 28.3786 2.83252 28.5992L2.82739 28.6043L1.14981 26.9267C1.37245 26.6461 1.4849 26.2939 1.46602 25.9362C1.44715 25.5785 1.29824 25.24 1.04731 24.9844C1.00631 24.9434 0.946517 24.9229 0.903809 24.8819L24.677 1.1087C24.6941 1.1497 24.7214 1.19241 24.7573 1.22829L24.7829 1.2522L24.7812 1.2505L24.7914 1.26075C24.9244 1.39391 25.0823 1.49955 25.2561 1.57163C25.43 1.64371 25.6163 1.68081 25.8045 1.68081C25.9927 1.68081 26.179 1.64371 26.3528 1.57163C26.5266 1.49955 26.6846 1.39391 26.8175 1.26075L26.8278 1.2505C26.8688 1.2095 26.8688 1.1685 26.9098 1.1275L28.5891 2.80679C28.5488 2.81908 28.5124 2.84142 28.4831 2.8717L28.4661 2.8905C28.3248 3.04354 28.2165 3.22405 28.148 3.42078C28.0795 3.6175 28.0523 3.82622 28.068 4.03393C28.0837 4.24164 28.142 4.44388 28.2393 4.62807C28.3366 4.81226 28.4708 4.97443 28.6335 5.10449L28.6283 5.09937L28.6386 5.10962C28.7716 5.24278 28.9295 5.34842 29.1033 5.4205C29.2771 5.49258 29.4635 5.52968 29.6516 5.52968C29.8398 5.52968 30.0261 5.49258 30.2 5.4205C30.3738 5.34842 30.5317 5.24278 30.6647 5.10962L30.6749 5.09937C30.7159 5.05837 30.7159 5.01737 30.7569 4.97637L32.4345 6.65395C32.3943 6.66624 32.3578 6.68859 32.3286 6.71887L32.3115 6.73766C32.0401 7.00906 31.8877 7.37714 31.8877 7.76095C31.8877 8.14476 32.0401 8.51285 32.3115 8.78424C32.5829 9.05564 32.951 9.20811 33.3348 9.20811C33.7186 9.20811 34.0867 9.05564 34.3581 8.78424C34.3991 8.74324 34.3991 8.70224 34.4401 8.66124L36.1177 10.3388C36.0766 10.3513 36.0396 10.3743 36.0101 10.4055L35.9947 10.4225C35.8603 10.5569 35.7537 10.7164 35.681 10.892C35.6083 11.0676 35.5708 11.2558 35.5708 11.4458C35.5708 11.6359 35.6083 11.8241 35.681 11.9996C35.7537 12.1752 35.8603 12.3347 35.9947 12.4691C36.1291 12.6035 36.2886 12.7101 36.4642 12.7828C36.6397 12.8555 36.8279 12.893 37.018 12.893C37.208 12.893 37.3962 12.8555 37.5718 12.7828C37.7474 12.7101 37.9069 12.6035 38.0413 12.4691C38.0823 12.4281 38.0823 12.3871 38.1233 12.3461L39.8008 14.0237C39.7606 14.036 39.7241 14.0583 39.6949 14.0886L39.6778 14.1074L39.6676 14.1177C39.5344 14.2506 39.4288 14.4085 39.3567 14.5824C39.2846 14.7562 39.2475 14.9425 39.2475 15.1307C39.2475 15.3189 39.2846 15.5052 39.3567 15.679C39.4288 15.8529 39.5344 16.0108 39.6676 16.1437L39.6761 16.1523L39.7086 16.1865C39.7678 16.246 39.8344 16.2976 39.9068 16.3402L39.9016 16.3368L16.1216 40.0997ZM31.9408 21.4977L32.1458 21.7027C32.228 21.7794 32.3369 21.8213 32.4494 21.8194C32.5619 21.8174 32.6692 21.7719 32.7488 21.6923C32.8283 21.6128 32.8739 21.5054 32.8758 21.3929C32.8777 21.2804 32.8359 21.1716 32.7591 21.0894L32.5507 20.881C32.4685 20.8042 32.3596 20.7623 32.2471 20.7642C32.1346 20.7662 32.0273 20.8117 31.9477 20.8913C31.8681 20.9708 31.8226 21.0782 31.8207 21.1907C31.8188 21.3032 31.8606 21.412 31.9374 21.4942L31.9408 21.4977ZM31.9203 13.3762L35.5215 16.9774C35.6037 17.0542 35.7126 17.096 35.825 17.0941C35.9375 17.0922 36.0449 17.0467 36.1244 16.9671C36.204 16.8875 36.2495 16.7802 36.2515 16.6677C36.2534 16.5552 36.2116 16.4464 36.1348 16.3641L32.5336 12.763C32.4514 12.6862 32.3425 12.6443 32.23 12.6462C32.1175 12.6482 32.0102 12.6937 31.9306 12.7733C31.8511 12.8528 31.8055 12.9602 31.8036 13.0727C31.8017 13.1852 31.8435 13.294 31.9203 13.3762ZM22.6065 6.73083L34.1856 18.3099C34.2678 18.3867 34.3766 18.4285 34.4891 18.4266C34.6016 18.4247 34.709 18.3792 34.7885 18.2996C34.8681 18.22 34.9136 18.1127 34.9156 18.0002C34.9175 17.8877 34.8756 17.7789 34.7988 17.6966L23.2198 6.11754C23.1375 6.04075 23.0287 5.9989 22.9162 6.00083C22.8037 6.00275 22.6963 6.0483 22.6168 6.12785C22.5372 6.20741 22.4917 6.31476 22.4898 6.42726C22.4878 6.53975 22.5297 6.6486 22.6065 6.73083ZM26.2691 24.7145H26.7611C26.8776 24.7051 26.987 24.6546 27.0696 24.5719C27.1523 24.4893 27.2028 24.3799 27.2121 24.2635V24.2652C27.2081 24.2083 27.1926 24.1528 27.1666 24.102C27.1405 24.0513 27.1045 24.0063 27.0605 23.9699C27.0166 23.9335 26.9658 23.9064 26.9111 23.8902C26.8564 23.874 26.799 23.8691 26.7423 23.8757H23.1002C23.0436 23.8747 22.9874 23.8852 22.935 23.9064C22.8826 23.9276 22.8349 23.9592 22.7949 23.9992C22.7549 24.0392 22.7234 24.0868 22.7021 24.1393C22.6809 24.1917 22.6705 24.2479 22.6714 24.3045C22.6652 24.3746 22.6795 24.445 22.7126 24.5072C22.7456 24.5693 22.796 24.6206 22.8576 24.6547L22.8559 24.653L18.5799 28.9289C18.5446 28.8691 18.4932 28.8203 18.4317 28.788C18.3701 28.7557 18.3008 28.7412 18.2314 28.7461C18.1747 28.7447 18.1182 28.7548 18.0654 28.7759C18.0127 28.7969 17.9648 28.8284 17.9245 28.8685C17.8843 28.9086 17.8526 28.9564 17.8314 29.009C17.8101 29.0617 17.7998 29.1181 17.8009 29.1749L17.7992 32.8154C17.7983 32.8719 17.8088 32.9281 17.83 32.9805C17.8512 33.033 17.8828 33.0806 17.9228 33.1206C17.9628 33.1606 18.0104 33.1922 18.0628 33.2134C18.1153 33.2346 18.1714 33.2451 18.228 33.2442C18.3445 33.2348 18.4539 33.1843 18.5365 33.1016C18.6191 33.019 18.6697 32.9096 18.679 32.7932V32.7949V32.3029L26.2691 24.7145ZM30.5041 20.0695L30.7091 20.2745C30.7913 20.3513 30.9002 20.3931 31.0127 20.3912C31.1252 20.3893 31.2325 20.3437 31.3121 20.2642C31.3916 20.1846 31.4372 20.0773 31.4391 19.9648C31.441 19.8523 31.3992 19.7434 31.3224 19.6612L31.1174 19.4562C31.0352 19.3794 30.9263 19.3376 30.8138 19.3395C30.7013 19.3414 30.594 19.387 30.5144 19.4665C30.4349 19.5461 30.3893 19.6534 30.3874 19.7659C30.3855 19.8784 30.4273 19.9873 30.5041 20.0695ZM29.0725 18.6379L29.2775 18.8429C29.3597 18.9197 29.4686 18.9615 29.5811 18.9596C29.6936 18.9577 29.8009 18.9122 29.8805 18.8326C29.96 18.753 30.0056 18.6457 30.0075 18.5332C30.0094 18.4207 29.9676 18.3118 29.8908 18.2296L29.6858 18.0246C29.6036 17.9478 29.4947 17.906 29.3822 17.9079C29.2697 17.9098 29.1624 17.9554 29.0828 18.0349C29.0033 18.1145 28.9577 18.2218 28.9558 18.3343C28.9539 18.4468 28.9957 18.5557 29.0725 18.6379ZM27.6409 17.2063L27.8459 17.4113C27.9282 17.4881 28.037 17.53 28.1495 17.528C28.262 17.5261 28.3694 17.4806 28.4489 17.401C28.5285 17.3215 28.574 17.2141 28.5759 17.1016C28.5779 16.9891 28.536 16.8803 28.4592 16.798L28.2525 16.5913C28.1703 16.5145 28.0614 16.4727 27.9489 16.4746C27.8364 16.4765 27.7291 16.5221 27.6495 16.6016C27.57 16.6812 27.5244 16.7886 27.5225 16.901C27.5206 17.0135 27.5624 17.1224 27.6392 17.2046L27.6409 17.2063ZM10.6806 20.172L10.7421 20.2335C10.3324 20.7918 10.1359 21.4783 10.1882 22.1688C10.2406 22.8594 10.5382 23.5084 11.0274 23.9987L15.1855 28.1567C15.5058 28.477 15.9403 28.6569 16.3933 28.6569C16.8463 28.6569 17.2807 28.477 17.6011 28.1567L21.8975 23.8603C22.2178 23.5399 22.3977 23.1055 22.3977 22.6525C22.3977 22.1995 22.2178 21.7651 21.8975 21.4447L17.7394 17.2866C17.2514 16.7987 16.6053 16.5009 15.9173 16.4467C15.2294 16.3925 14.5446 16.5856 13.9862 16.9911L13.9726 17.0013L13.9111 16.9398C13.8284 16.861 13.7186 16.817 13.6044 16.817C13.4902 16.817 13.3804 16.861 13.2978 16.9398L10.6806 19.557C10.6018 19.6396 10.5578 19.7494 10.5578 19.8636C10.5578 19.9778 10.6018 20.0894 10.6806 20.172ZM26.2042 15.7799L26.4092 15.9849C26.4915 16.0617 26.6003 16.1035 26.7128 16.1016C26.8253 16.0997 26.9326 16.0541 27.0122 15.9746C27.0918 15.895 27.1373 15.7876 27.1392 15.6751C27.1411 15.5627 27.0993 15.4538 27.0225 15.3716L26.8158 15.1649C26.7336 15.0881 26.6247 15.0462 26.5122 15.0482C26.3997 15.0501 26.2924 15.0956 26.2128 15.1752C26.1333 15.2547 26.0877 15.3621 26.0858 15.4746C26.0839 15.5871 26.1257 15.6959 26.2025 15.7782L26.2042 15.7799ZM24.7726 14.3483L24.9759 14.5516C25.0582 14.6284 25.167 14.6702 25.2795 14.6683C25.392 14.6664 25.4993 14.6208 25.5789 14.5413C25.6585 14.4617 25.704 14.3544 25.7059 14.2419C25.7079 14.1294 25.666 14.0205 25.5892 13.9383L25.3859 13.735C25.3037 13.6582 25.1949 13.6164 25.0824 13.6183C24.9699 13.6202 24.8625 13.6658 24.783 13.7453C24.7034 13.8249 24.6579 13.9322 24.6559 14.0447C24.654 14.1572 24.6959 14.2661 24.7726 14.3483ZM23.3393 12.915L23.5443 13.12C23.6266 13.1968 23.7354 13.2386 23.8479 13.2367C23.9604 13.2348 24.0678 13.1892 24.1473 13.1097C24.2269 13.0301 24.2724 12.9228 24.2744 12.8103C24.2763 12.6978 24.2344 12.5889 24.1576 12.5067L23.9526 12.3017C23.8704 12.2249 23.7616 12.1831 23.6491 12.185C23.5366 12.1869 23.4292 12.2325 23.3497 12.312C23.2701 12.3916 23.2246 12.4989 23.2226 12.6114C23.2207 12.7239 23.2626 12.8328 23.3393 12.915ZM26.2025 7.80024L27.2258 8.82354C27.308 8.90033 27.4169 8.94217 27.5294 8.94025C27.6419 8.93832 27.7492 8.89278 27.8288 8.81322C27.9083 8.73366 27.9539 8.62631 27.9558 8.51382C27.9577 8.40132 27.9159 8.29248 27.8391 8.21024L26.8158 7.18695C26.7336 7.11016 26.6247 7.06832 26.5122 7.07024C26.3997 7.07217 26.2924 7.11771 26.2128 7.19727C26.1333 7.27683 26.0877 7.38418 26.0858 7.49667C26.0839 7.60917 26.1257 7.71801 26.2025 7.80024ZM21.9078 11.4834L22.1128 11.6884C22.195 11.7652 22.3038 11.807 22.4163 11.8051C22.5288 11.8032 22.6362 11.7577 22.7157 11.6781C22.7953 11.5985 22.8408 11.4912 22.8428 11.3787C22.8447 11.2662 22.8028 11.1574 22.7261 11.0751L22.5211 10.8701C22.4388 10.7933 22.33 10.7515 22.2175 10.7534C22.105 10.7553 21.9976 10.8009 21.9181 10.8804C21.8385 10.96 21.793 11.0673 21.7911 11.1798C21.7891 11.2923 21.831 11.4012 21.9078 11.4834ZM23.9731 5.57087L24.9913 6.58904C25.0735 6.66583 25.1824 6.70767 25.2949 6.70575C25.4074 6.70382 25.5147 6.65828 25.5943 6.57872C25.6738 6.49916 25.7194 6.39181 25.7213 6.27932C25.7232 6.16682 25.6814 6.05798 25.6046 5.97574L24.5864 4.95758C24.5042 4.88079 24.3954 4.83894 24.2829 4.84087C24.1704 4.84279 24.063 4.88834 23.9835 4.9679C23.9039 5.04745 23.8584 5.1548 23.8564 5.2673C23.8545 5.37979 23.8963 5.48864 23.9731 5.57087ZM20.4762 10.0501L20.6812 10.2551C20.7634 10.3319 20.8723 10.3738 20.9848 10.3718C21.0972 10.3699 21.2046 10.3244 21.2842 10.2448C21.3637 10.1652 21.4093 10.0579 21.4112 9.9454C21.4131 9.8329 21.3713 9.72406 21.2945 9.64183L21.0878 9.43512C21.0055 9.35833 20.8967 9.31648 20.7842 9.31841C20.6717 9.32033 20.5643 9.36588 20.4848 9.44544C20.4052 9.52499 20.3597 9.63234 20.3578 9.74484C20.3558 9.85733 20.3977 9.96618 20.4745 10.0484L20.4762 10.0501ZM19.0429 8.61854L19.2479 8.82354C19.3301 8.90033 19.439 8.94217 19.5515 8.94025C19.664 8.93832 19.7713 8.89278 19.8509 8.81322C19.9304 8.73366 19.976 8.62631 19.9779 8.51382C19.9798 8.40132 19.938 8.29248 19.8612 8.21024L19.6545 8.00354C19.5722 7.92675 19.4634 7.8849 19.3509 7.88682C19.2384 7.88875 19.1311 7.93429 19.0515 8.01385C18.9719 8.09341 18.9264 8.20076 18.9245 8.31326C18.9225 8.42575 18.9644 8.5346 19.0412 8.61683L19.0429 8.61854ZM18.6807 31.0763L18.6602 30.0325L23.9988 24.694L25.0426 24.7145L18.6807 31.0763ZM16.9809 27.5366C16.8231 27.6934 16.6097 27.7814 16.3873 27.7814C16.1648 27.7814 15.9514 27.6934 15.7936 27.5366L13.8923 25.6352L19.376 20.1515L21.2774 22.0529C21.4342 22.2107 21.5222 22.4241 21.5222 22.6465C21.5222 22.869 21.4342 23.0824 21.2774 23.2402L16.9809 27.5366ZM18.4125 23.7732C18.5986 23.9594 18.8357 24.0863 19.0939 24.1378C19.3521 24.1893 19.6197 24.163 19.863 24.0624C20.1063 23.9617 20.3142 23.7911 20.4605 23.5722C20.6068 23.3534 20.6849 23.096 20.6849 22.8327C20.6849 22.5694 20.6068 22.3121 20.4605 22.0932C20.3142 21.8743 20.1063 21.7038 19.863 21.6031C19.6197 21.5024 19.3521 21.4761 19.0939 21.5276C18.8357 21.5791 18.5986 21.706 18.4125 21.8923C18.167 22.1438 18.0295 22.4813 18.0295 22.8327C18.0295 23.1842 18.167 23.5217 18.4125 23.7732ZM15.5903 26.597L15.5921 26.5987C15.7152 26.7222 15.8615 26.8202 16.0226 26.8871C16.1837 26.9539 16.3564 26.9884 16.5308 26.9884C16.7052 26.9884 16.8779 26.9539 17.039 26.8871C17.2001 26.8202 17.3464 26.7222 17.4695 26.5987L17.4712 26.597C17.982 26.0743 17.982 25.2389 17.4712 24.7162C16.9604 24.1934 17.4695 24.7145 17.4695 24.7145C17.3464 24.5909 17.2001 24.493 17.039 24.4261C16.8779 24.3592 16.7052 24.3248 16.5308 24.3248C16.3564 24.3248 16.1837 24.3592 16.0226 24.4261C15.8615 24.493 15.7152 24.5909 15.5921 24.7145L15.5903 24.7162C15.3448 24.9676 15.2074 25.3051 15.2074 25.6566C15.2074 26.008 15.3448 26.3456 15.5903 26.597ZM19.007 23.1394C18.9427 23.0745 18.899 22.992 18.8815 22.9023C18.864 22.8126 18.8734 22.7197 18.9086 22.6354C18.9437 22.551 19.0031 22.479 19.0791 22.4283C19.1551 22.3776 19.2445 22.3505 19.3359 22.3505C19.4273 22.3505 19.5166 22.3776 19.5926 22.4283C19.6687 22.479 19.728 22.551 19.7632 22.6354C19.7983 22.7197 19.8078 22.8126 19.7902 22.9023C19.7727 22.992 19.729 23.0745 19.6647 23.1394L19.6596 23.1445C19.5738 23.2298 19.4577 23.2777 19.3367 23.2777C19.2157 23.2777 19.0996 23.2298 19.0138 23.1445L19.007 23.1394ZM16.1831 25.9615C16.118 25.8966 16.0736 25.8138 16.0555 25.7236C16.0375 25.6335 16.0466 25.5399 16.0817 25.4549C16.1168 25.3699 16.1764 25.2973 16.2528 25.2462C16.3293 25.195 16.4192 25.1677 16.5111 25.1677C16.6031 25.1677 16.693 25.195 16.7695 25.2462C16.8459 25.2973 16.9055 25.3699 16.9406 25.4549C16.9757 25.5399 16.9848 25.6335 16.9668 25.7236C16.9487 25.8138 16.9043 25.8966 16.8391 25.9615L16.834 25.9667C16.7482 26.052 16.6321 26.0999 16.5111 26.0999C16.3901 26.0999 16.2741 26.052 16.1883 25.9667L16.1831 25.9615ZM13.2773 25.022L11.6407 23.3854L11.6304 23.3751C11.4435 23.1882 11.2953 22.9664 11.1942 22.7222C11.093 22.4781 11.041 22.2164 11.041 21.9521C11.041 21.6878 11.093 21.4261 11.1942 21.1819C11.2953 20.9378 11.4435 20.7159 11.6304 20.529L11.639 20.5205L14.2561 17.9033L14.2664 17.8931C15.0522 17.1072 16.3266 17.1072 17.1125 17.8931L17.121 17.9016L18.7576 19.5382L13.2773 25.022Z" fill="black"/>
</g>
</svg>
