<svg width="40" height="40" viewBox="0 0 40 40" fill="none" xmlns="http://www.w3.org/2000/svg">
<g id="Frame">
<path id="Vector" d="M26.25 3.75H13.75C12.093 3.75198 10.5044 4.4111 9.33277 5.58277C8.1611 6.75445 7.50198 8.34301 7.5 10V25C7.50464 26.3435 7.94296 27.6496 8.74972 28.724C9.55648 29.7983 10.6886 30.5834 11.9775 30.9625L9.71125 36.25H12.4312L14.5738 31.25H25.4263L27.5688 36.25H30.2888L28.0225 30.9625C29.3114 30.5834 30.4435 29.7983 31.2503 28.724C32.057 27.6496 32.4954 26.3435 32.5 25V10C32.498 8.34301 31.8389 6.75445 30.6672 5.58277C29.4956 4.4111 27.907 3.75198 26.25 3.75ZM13.75 6.25H26.25C27.023 6.2523 27.7764 6.49384 28.4067 6.94147C29.0369 7.3891 29.5132 8.02086 29.77 8.75H10.23C10.4868 8.02086 10.9631 7.3891 11.5933 6.94147C12.2236 6.49384 12.977 6.2523 13.75 6.25ZM30 23.75H26.25V26.25H29.77C29.5132 26.9791 29.0369 27.6109 28.4067 28.0585C27.7764 28.5062 27.023 28.7477 26.25 28.75H13.75C12.977 28.7477 12.2236 28.5062 11.5933 28.0585C10.9631 27.6109 10.4868 26.9791 10.23 26.25H13.75V23.75H10V21.25H30V23.75ZM30 18.75H10V11.25H30V18.75Z" fill="black"/>
</g>
</svg>
